name C:\Users\u0101727\Documents\MyRepositories\upper-imu-dc\Results\main_tracking\Case_14\ABD01_angularVelocities_bodyFrame.mot
datacolumns 4
datarows 70
range 6.31000000 7.00000000
endheader 
time	radius_imu_x	radius_imu_y	radius_imu_z	
          6.31000000	         -0.51931737	         -0.33304151	          0.36467140	
          6.32000000	         -0.52093806	         -0.32762900	          0.37538559	
          6.33000000	         -0.52296084	         -0.32570690	          0.38379545	
          6.34000000	         -0.52514976	         -0.32535694	          0.38983980	
          6.35000000	         -0.52713146	         -0.32415873	          0.39360852	
          6.36000000	         -0.52844565	         -0.31994874	          0.39526045	
          6.37000000	         -0.52864560	         -0.31159077	          0.39493469	
          6.38000000	         -0.52742120	         -0.29949304	          0.39268753	
          6.39000000	         -0.52469314	         -0.28563937	          0.38848518	
          6.40000000	         -0.52063194	         -0.27303594	          0.38225662	
          6.41000000	         -0.51558609	         -0.26473426	          0.37397305	
          6.42000000	         -0.50995154	         -0.26281372	          0.36370885	
          6.43000000	         -0.50404322	         -0.26770778	          0.35165780	
          6.44000000	         -0.49801853	         -0.27810499	          0.33810448	
          6.45000000	         -0.49187350	         -0.29143682	          0.32336548	
          6.46000000	         -0.48550437	         -0.30475438	          0.30772043	
          6.47000000	         -0.47880556	         -0.31565224	          0.29135643	
          6.48000000	         -0.47175953	         -0.32288424	          0.27435100	
          6.49000000	         -0.46447317	         -0.32645363	          0.25670902	
          6.50000000	         -0.45714125	         -0.32720996	          0.23844238	
          6.51000000	         -0.44996279	         -0.32621780	          0.21965396	
          6.52000000	         -0.44306432	         -0.32422528	          0.20058521	
          6.53000000	         -0.43646964	         -0.32144698	          0.18161276	
          6.54000000	         -0.43012132	         -0.31769209	          0.16320785	
          6.55000000	         -0.42393524	         -0.31269646	          0.14588204	
          6.56000000	         -0.41786508	         -0.30649549	          0.13013828	
          6.57000000	         -0.41194057	         -0.29961115	          0.11643253	
          6.58000000	         -0.40625937	         -0.29297026	          0.10514603	
          6.59000000	         -0.40094251	         -0.28764621	          0.09656699	
          6.60000000	         -0.39609201	         -0.28455384	          0.09086618	
          6.61000000	         -0.39173770	         -0.28420190	          0.08812594	
          6.62000000	         -0.38783893	         -0.28656836	          0.08830463	
          6.63000000	         -0.38434055	         -0.29115465	          0.09116792	
          6.64000000	         -0.38115798	         -0.29711938	          0.09640039	
          6.65000000	         -0.37817384	         -0.30350815	          0.10366735	
          6.66000000	         -0.37523797	         -0.30954636	          0.11260202	
          6.67000000	         -0.37214531	         -0.31490624	          0.12283365	
          6.68000000	         -0.36866592	         -0.31988594	          0.13399635	
          6.69000000	         -0.36461997	         -0.32537299	          0.14572837	
          6.70000000	         -0.35996097	         -0.33257731	          0.15766835	
          6.71000000	         -0.35481117	         -0.34263064	          0.16945532	
          6.72000000	         -0.34941756	         -0.35619011	          0.18073541	
          6.73000000	         -0.34404729	         -0.37314274	          0.19117623	
          6.74000000	         -0.33887818	         -0.39248211	          0.20048400	
          6.75000000	         -0.33393381	         -0.41244315	          0.20841267	
          6.76000000	         -0.32907511	         -0.43093728	          0.21475813	
          6.77000000	         -0.32402617	         -0.44617882	          0.21934653	
          6.78000000	         -0.31840922	         -0.45725553	          0.22203557	
          6.79000000	         -0.31178841	         -0.46441347	          0.22273650	
          6.80000000	         -0.30373551	         -0.46898240	          0.22144588	
          6.81000000	         -0.29391279	         -0.47301561	          0.21826878	
          6.82000000	         -0.28214800	         -0.47875978	          0.21342084	
          6.83000000	         -0.26847737	         -0.48805992	          0.20720603	
          6.84000000	         -0.25314524	         -0.50179376	          0.19997718	
          6.85000000	         -0.23656492	         -0.51947894	          0.19208626	
          6.86000000	         -0.21924923	         -0.53917872	          0.18383399	
          6.87000000	         -0.20171688	         -0.55773870	          0.17543057	
          6.88000000	         -0.18439700	         -0.57129470	          0.16697285	
          6.89000000	         -0.16757346	         -0.57589041	          0.15843939	
          6.90000000	         -0.15139516	         -0.56803611	          0.14970745	
          6.91000000	         -0.13593812	         -0.54513594	          0.14059544	
          6.92000000	         -0.12128313	         -0.50585356	          0.13091631	
          6.93000000	         -0.10756080	         -0.45048793	          0.12052341	
          6.94000000	         -0.09493227	         -0.38128398	          0.10934252	
          6.95000000	         -0.08351916	         -0.30247617	          0.09739222	
          6.96000000	         -0.07332935	         -0.21986849	          0.08479655	
          6.97000000	         -0.06422361	         -0.13992695	          0.07179104	
          6.98000000	         -0.05593714	         -0.06858906	          0.05871606	
          6.99000000	         -0.04813792	         -0.01014754	          0.04598214	
          7.00000000	         -0.04049148	          0.03346977	          0.03399569	
